HIERARCHY
ROOT mixamorig:Hips
{
	OFFSET -0.000008 104.274872 1.554316
	CHANNELS 6 Xposition Yposition Zposition Xrotation Yrotation Zrotation
	JOINT mixamorig:Spine
	{
		OFFSET -0.000005 10.181595 0.131519
		CHANNELS 6 Xposition Yposition Zposition Xrotation Yrotation Zrotation
		JOINT mixamorig:Spine1
		{
			OFFSET -0.000000 9.893959 -1.470707
			CHANNELS 6 Xposition Yposition Zposition Xrotation Yrotation Zrotation
			JOINT mixamorig:Spine2
			{
				OFFSET -0.000000 9.220757 -1.370641
				CHANNELS 6 Xposition Yposition Zposition Xrotation Yrotation Zrotation
				JOINT mixamorig:Neck
				{
					OFFSET 0.000001 16.740417 -2.049036
					CHANNELS 6 Xposition Yposition Zposition Xrotation Yrotation Zrotation
					JOINT mixamorig:Head
					{
						OFFSET 0.000000 9.617874 1.685006
						CHANNELS 6 Xposition Yposition Zposition Xrotation Yrotation Zrotation
						JOINT mixamorig:HeadTop_End
						{
							OFFSET 0.000002 22.037354 7.501101
							CHANNELS 6 Xposition Yposition Zposition Xrotation Yrotation Zrotation
							End Site
							{
								OFFSET 0.000168 2310.654297 -282.823242
							}
						}
					}
				}
				JOINT mixamorig:RightShoulder
				{
					OFFSET -4.569970 11.014908 -2.160885
					CHANNELS 6 Xposition Yposition Zposition Xrotation Yrotation Zrotation
					JOINT mixamorig:RightArm
					{
						OFFSET -10.592851 -0.524811 -2.232101
						CHANNELS 6 Xposition Yposition Zposition Xrotation Yrotation Zrotation
						JOINT mixamorig:RightForeArm
						{
							OFFSET -27.841511 0.000031 -0.000004
							CHANNELS 6 Xposition Yposition Zposition Xrotation Yrotation Zrotation
							JOINT mixamorig:RightHand
							{
								OFFSET -28.328831 -0.000015 0.000015
								CHANNELS 6 Xposition Yposition Zposition Xrotation Yrotation Zrotation
								JOINT mixamorig:RightHandThumb1
								{
									OFFSET -2.464806 -1.573990 2.681852
									CHANNELS 6 Xposition Yposition Zposition Xrotation Yrotation Zrotation
									JOINT mixamorig:RightHandThumb2
									{
										OFFSET -3.215179 -1.872803 1.924282
										CHANNELS 6 Xposition Yposition Zposition Xrotation Yrotation Zrotation
										JOINT mixamorig:RightHandThumb3
										{
											OFFSET -2.654831 -1.527969 1.512609
											CHANNELS 6 Xposition Yposition Zposition Xrotation Yrotation Zrotation
											JOINT mixamorig:RightHandThumb4
											{
												OFFSET -2.018814 -1.152008 1.108052
												CHANNELS 6 Xposition Yposition Zposition Xrotation Yrotation Zrotation
												End Site
												{
													OFFSET -188.809540 -114.533607 132.431396
												}
											}
										}
									}
								}
								JOINT mixamorig:RightHandIndex1
								{
									OFFSET -9.108284 -0.517868 2.259835
									CHANNELS 6 Xposition Yposition Zposition Xrotation Yrotation Zrotation
									JOINT mixamorig:RightHandIndex2
									{
										OFFSET -3.699989 0.000000 0.001215
										CHANNELS 6 Xposition Yposition Zposition Xrotation Yrotation Zrotation
										JOINT mixamorig:RightHandIndex3
										{
											OFFSET -2.850006 0.000031 -0.000522
											CHANNELS 6 Xposition Yposition Zposition Xrotation Yrotation Zrotation
											JOINT mixamorig:RightHandIndex4
											{
												OFFSET -2.772186 -0.000015 -0.000020
												CHANNELS 6 Xposition Yposition Zposition Xrotation Yrotation Zrotation
												End Site
												{
													OFFSET -277.218445 0.000000 -0.050231
												}
											}
										}
									}
								}
								JOINT mixamorig:RightHandMiddle1
								{
									OFFSET -9.532516 -0.000031 -0.000023
									CHANNELS 6 Xposition Yposition Zposition Xrotation Yrotation Zrotation
									JOINT mixamorig:RightHandMiddle2
									{
										OFFSET -3.700005 -0.000015 0.003713
										CHANNELS 6 Xposition Yposition Zposition Xrotation Yrotation Zrotation
										JOINT mixamorig:RightHandMiddle3
										{
											OFFSET -2.949974 0.000015 -0.002054
											CHANNELS 6 Xposition Yposition Zposition Xrotation Yrotation Zrotation
											JOINT mixamorig:RightHandMiddle4
											{
												OFFSET -2.946640 0.000000 -0.000156
												CHANNELS 6 Xposition Yposition Zposition Xrotation Yrotation Zrotation
												End Site
												{
													OFFSET -294.664337 0.000000 -0.113670
												}
											}
										}
									}
								}
								JOINT mixamorig:RightHandRing1
								{
									OFFSET -9.103600 -0.043076 -1.865134
									CHANNELS 6 Xposition Yposition Zposition Xrotation Yrotation Zrotation
									JOINT mixamorig:RightHandRing2
									{
										OFFSET -3.379288 0.000000 -0.001055
										CHANNELS 6 Xposition Yposition Zposition Xrotation Yrotation Zrotation
										JOINT mixamorig:RightHandRing3
										{
											OFFSET -2.889687 -0.000015 0.000379
											CHANNELS 6 Xposition Yposition Zposition Xrotation Yrotation Zrotation
											JOINT mixamorig:RightHandRing4
											{
												OFFSET -2.638809 -0.000015 0.000941
												CHANNELS 6 Xposition Yposition Zposition Xrotation Yrotation Zrotation
												End Site
												{
													OFFSET -263.880371 0.000000 0.516020
												}
											}
										}
									}
								}
								JOINT mixamorig:RightHandPinky1
								{
									OFFSET -8.076683 -0.486710 -3.806280
									CHANNELS 6 Xposition Yposition Zposition Xrotation Yrotation Zrotation
									JOINT mixamorig:RightHandPinky2
									{
										OFFSET -3.600014 -0.000015 -0.003747
										CHANNELS 6 Xposition Yposition Zposition Xrotation Yrotation Zrotation
										JOINT mixamorig:RightHandPinky3
										{
											OFFSET -2.099983 0.000000 -0.005739
											CHANNELS 6 Xposition Yposition Zposition Xrotation Yrotation Zrotation
											JOINT mixamorig:RightHandPinky4
											{
												OFFSET -2.115768 -0.000031 -0.003680
												CHANNELS 6 Xposition Yposition Zposition Xrotation Yrotation Zrotation
												End Site
												{
													OFFSET -211.577087 0.000000 -0.350686
												}
											}
										}
									}
								}
							}
						}
					}
				}
				JOINT mixamorig:LeftShoulder
				{
					OFFSET 4.570447 11.014725 -2.160855
					CHANNELS 6 Xposition Yposition Zposition Xrotation Yrotation Zrotation
					JOINT mixamorig:LeftArm
					{
						OFFSET 10.592371 -0.524597 -2.232119
						CHANNELS 6 Xposition Yposition Zposition Xrotation Yrotation Zrotation
						JOINT mixamorig:LeftForeArm
						{
							OFFSET 27.841532 -0.000031 0.000026
							CHANNELS 6 Xposition Yposition Zposition Xrotation Yrotation Zrotation
							JOINT mixamorig:LeftHand
							{
								OFFSET 28.328846 -0.000061 0.000022
								CHANNELS 6 Xposition Yposition Zposition Xrotation Yrotation Zrotation
								JOINT mixamorig:LeftHandThumb1
								{
									OFFSET 2.466141 -1.576172 2.681732
									CHANNELS 6 Xposition Yposition Zposition Xrotation Yrotation Zrotation
									JOINT mixamorig:LeftHandThumb2
									{
										OFFSET 3.217812 -1.872070 1.916482
										CHANNELS 6 Xposition Yposition Zposition Xrotation Yrotation Zrotation
										JOINT mixamorig:LeftHandThumb3
										{
											OFFSET 2.656029 -1.528778 1.514513
											CHANNELS 6 Xposition Yposition Zposition Xrotation Yrotation Zrotation
											JOINT mixamorig:LeftHandThumb4
											{
												OFFSET 2.020889 -1.154053 1.115139
												CHANNELS 6 Xposition Yposition Zposition Xrotation Yrotation Zrotation
												End Site
												{
													OFFSET 190.885437 -115.081749 130.048782
												}
											}
										}
									}
								}
								JOINT mixamorig:LeftHandIndex1
								{
									OFFSET 9.109314 -0.518021 2.259871
									CHANNELS 6 Xposition Yposition Zposition Xrotation Yrotation Zrotation
									JOINT mixamorig:LeftHandIndex2
									{
										OFFSET 3.699989 0.000000 -0.000322
										CHANNELS 6 Xposition Yposition Zposition Xrotation Yrotation Zrotation
										JOINT mixamorig:LeftHandIndex3
										{
											OFFSET 2.850006 0.000000 0.000352
											CHANNELS 6 Xposition Yposition Zposition Xrotation Yrotation Zrotation
											JOINT mixamorig:LeftHandIndex4
											{
												OFFSET 2.774864 -0.000031 -0.000027
												CHANNELS 6 Xposition Yposition Zposition Xrotation Yrotation Zrotation
												End Site
												{
													OFFSET 277.486267 0.000000 -0.009857
												}
											}
										}
									}
								}
								JOINT mixamorig:LeftHandMiddle1
								{
									OFFSET 9.533394 0.000061 0.000044
									CHANNELS 6 Xposition Yposition Zposition Xrotation Yrotation Zrotation
									JOINT mixamorig:LeftHandMiddle2
									{
										OFFSET 3.699989 -0.000015 -0.000231
										CHANNELS 6 Xposition Yposition Zposition Xrotation Yrotation Zrotation
										JOINT mixamorig:LeftHandMiddle3
										{
											OFFSET 2.949997 -0.000015 -0.000059
											CHANNELS 6 Xposition Yposition Zposition Xrotation Yrotation Zrotation
											JOINT mixamorig:LeftHandMiddle4
											{
												OFFSET 2.952896 0.000031 0.000063
												CHANNELS 6 Xposition Yposition Zposition Xrotation Yrotation Zrotation
												End Site
												{
													OFFSET 295.289337 0.000000 0.022810
												}
											}
										}
									}
								}
								JOINT mixamorig:LeftHandRing1
								{
									OFFSET 9.104523 -0.042999 -1.865074
									CHANNELS 6 Xposition Yposition Zposition Xrotation Yrotation Zrotation
									JOINT mixamorig:LeftHandRing2
									{
										OFFSET 3.150009 -0.000031 0.000043
										CHANNELS 6 Xposition Yposition Zposition Xrotation Yrotation Zrotation
										JOINT mixamorig:LeftHandRing3
										{
											OFFSET 2.949982 -0.000015 0.000040
											CHANNELS 6 Xposition Yposition Zposition Xrotation Yrotation Zrotation
											JOINT mixamorig:LeftHandRing4
											{
												OFFSET 2.644348 0.000000 0.000057
												CHANNELS 6 Xposition Yposition Zposition Xrotation Yrotation Zrotation
												End Site
												{
													OFFSET 264.434631 0.000000 0.012105
												}
											}
										}
									}
								}
								JOINT mixamorig:LeftHandPinky1
								{
									OFFSET 8.077789 -0.486847 -3.806259
									CHANNELS 6 Xposition Yposition Zposition Xrotation Yrotation Zrotation
									JOINT mixamorig:LeftHandPinky2
									{
										OFFSET 3.599953 0.000031 0.014727
										CHANNELS 6 Xposition Yposition Zposition Xrotation Yrotation Zrotation
										JOINT mixamorig:LeftHandPinky3
										{
											OFFSET 2.100021 0.000015 0.007705
											CHANNELS 6 Xposition Yposition Zposition Xrotation Yrotation Zrotation
											JOINT mixamorig:LeftHandPinky4
											{
												OFFSET 2.125504 0.000031 0.007517
												CHANNELS 6 Xposition Yposition Zposition Xrotation Yrotation Zrotation
												End Site
												{
													OFFSET 212.550781 0.000000 0.625752
												}
											}
										}
									}
								}
							}
						}
					}
				}
			}
		}
	}
	JOINT mixamorig:RightUpLeg
	{
		OFFSET -8.207787 -6.751648 -1.599560
		CHANNELS 6 Xposition Yposition Zposition Xrotation Yrotation Zrotation
		JOINT mixamorig:RightLeg
		{
			OFFSET -0.000002 -44.370117 0.345942
			CHANNELS 6 Xposition Yposition Zposition Xrotation Yrotation Zrotation
			JOINT mixamorig:RightFoot
			{
				OFFSET 0.000003 -44.423679 -3.043532
				CHANNELS 6 Xposition Yposition Zposition Xrotation Yrotation Zrotation
				JOINT mixamorig:RightToeBase
				{
					OFFSET -0.000002 -8.728671 10.710558
					CHANNELS 6 Xposition Yposition Zposition Xrotation Yrotation Zrotation
					JOINT mixamorig:RightToe_End
					{
						OFFSET -0.000001 -0.000679 9.278119
						CHANNELS 6 Xposition Yposition Zposition Xrotation Yrotation Zrotation
						End Site
						{
							OFFSET 0.000000 -0.067690 927.812134
						}
					}
				}
			}
		}
	}
	JOINT mixamorig:LeftUpLeg
	{
		OFFSET 8.207793 -6.751686 -1.599556
		CHANNELS 6 Xposition Yposition Zposition Xrotation Yrotation Zrotation
		JOINT mixamorig:LeftLeg
		{
			OFFSET -0.000004 -44.370014 0.346954
			CHANNELS 6 Xposition Yposition Zposition Xrotation Yrotation Zrotation
			JOINT mixamorig:LeftFoot
			{
				OFFSET -0.000001 -44.423672 -3.044401
				CHANNELS 6 Xposition Yposition Zposition Xrotation Yrotation Zrotation
				JOINT mixamorig:LeftToeBase
				{
					OFFSET -0.000002 -8.728669 10.710558
					CHANNELS 6 Xposition Yposition Zposition Xrotation Yrotation Zrotation
					JOINT mixamorig:LeftToe_End
					{
						OFFSET -0.000003 -0.000679 9.278133
						CHANNELS 6 Xposition Yposition Zposition Xrotation Yrotation Zrotation
						End Site
						{
							OFFSET 0.000000 -0.068021 927.813477
						}
					}
				}
			}
		}
	}
}
MOTION
Frames: 3
Frame Time: 0.033333
0.000006 104.270477 1.554256 0.000010 0.000003 -0.000113 -0.000005 10.181587 0.131522 0.000001 -0.000003 0.000084 -0.000000 9.893967 -1.470711 0.000001 0.000000 -0.000000 -0.000000 9.220802 -1.370642 0.000000 -0.000000 -0.000000 0.000001 16.740433 -2.049030 0.000000 -0.000000 -0.000000 0.000000 9.617859 1.685014 0.000000 0.000000 0.000000 0.000002 22.037384 7.501101 0.000000 -0.000000 0.000000 -4.569968 11.014880 -2.160881 0.000008 0.000001 -0.000038 -10.592745 -0.524859 -2.231728 94.780384 67.784437 -72.281256 -27.841362 0.000019 0.000648 12.568614 124.040006 -23.421690 -28.328833 0.000021 0.000026 -0.000320 -0.000047 0.000006 -2.464676 -1.573572 2.682163 -57.397092 160.113308 -94.924036 -3.214680 -1.872749 1.924665 146.821214 -44.608556 189.361312 -2.654407 -1.528022 1.513093 161.277555 -41.652447 210.890437 -2.018845 -1.152014 1.108069 -0.000007 0.000002 0.000000 -9.108227 -0.517901 2.260392 170.209680 13.135834 -107.078139 -3.699826 -0.000037 0.001795 171.048933 17.088006 -124.799864 -2.849841 0.000011 0.000059 176.582615 15.153229 -154.711503 -2.772143 -0.000010 -0.000003 0.000000 -0.000001 0.000001 -9.532471 -0.000065 0.000533 169.695203 11.820678 -99.067044 -3.699878 -0.000058 0.004298 171.582343 15.943709 -123.876532 -2.949815 -0.000040 -0.001471 178.291624 11.892392 -163.642016 -2.946622 0.000006 -0.000164 -0.000000 0.000001 -0.000001 -9.103543 -0.043097 -1.864567 171.629786 10.153133 -100.606275 -3.379191 -0.000079 -0.000494 173.814258 7.061506 -97.839823 -2.889436 -0.000078 0.000940 178.544942 4.161500 -142.814994 -2.638819 -0.000004 0.000935 0.000002 -0.000000 -0.000002 -8.076421 -0.486711 -3.805713 179.080593 8.076935 -165.149767 -3.599906 -0.000113 -0.003188 179.573801 1.149370 -97.031245 -2.099913 0.000254 -0.005201 177.346094 -0.720549 35.795082 -2.115769 -0.000039 -0.003677 -0.000003 -0.000001 -0.000003 4.570446 11.014691 -2.160851 -0.000018 0.000010 -0.000021 10.592515 -0.524562 -2.232374 55.997883 -70.814356 41.408247 27.841789 -0.000060 -0.000090 -153.922712 -65.228559 -140.208429 28.328831 -0.000013 0.000027 0.000021 -0.000089 0.000000 2.466087 -1.576193 2.681857 59.368018 109.244108 -103.861871 3.217634 -1.872054 1.916421 102.728873 -278.418072 237.558023 2.655938 -1.528846 1.514611 -149.253977 60.975810 98.367606 2.020883 -1.154064 1.115145 -0.000000 0.000003 0.000006 9.109181 -0.518012 2.259832 -125.100310 -42.788721 -167.791698 3.699767 0.000008 -0.000309 -95.730313 -39.783550 -119.705158 2.849720 0.000158 0.000292 -90.368628 -2.400011 -139.770245 2.774885 -0.000028 -0.000024 -0.000001 0.000003 -0.000002 9.533247 0.000165 -0.000112 -98.263801 -10.974348 -181.338941 3.699818 0.000015 -0.000323 73.944359 -132.399679 21.567996 2.949805 0.000005 -0.000066 85.259237 -134.067283 50.640252 2.952873 -0.000016 0.000061 -0.000000 0.000003 0.000000 9.104402 -0.042914 -1.865245 -99.208484 -11.961530 -177.265033 3.149714 0.000008 0.000109 70.957476 -131.213439 49.222175 2.949673 -0.000004 0.000054 56.756563 -137.813178 12.893310 2.644302 0.000051 0.000051 -0.000002 -0.000000 -0.000000 8.077633 -0.486765 -3.806402 81.459554 -168.905524 7.782415 3.599688 0.000185 0.014567 -92.617591 -4.221655 -164.470928 2.100116 0.000223 0.007722 439.613241 -2.193695 62.653694 2.125497 -0.000028 0.007521 -0.000003 -0.000001 -0.000000 -8.207786 -6.751667 -1.599560 -0.077001 -0.000003 0.000080 -0.000002 -44.370110 0.345938 0.153719 -0.000000 -0.000000 0.000000 -44.423679 -3.043532 -0.076700 0.000000 -0.000002 -0.000006 -8.728667 10.710559 -0.000009 -0.000000 -0.000000 -0.000001 -0.000679 9.278123 0.000000 -0.000000 -0.000000 8.207792 -6.751710 -1.599556 -0.074518 -0.000003 0.000081 -0.000002 -44.370014 0.346960 0.148822 0.000002 0.000000 -0.000001 -44.423664 -3.044403 -0.074314 0.000000 -0.000002 -0.000004 -8.728671 10.710558 0.000007 -0.000000 -0.000000 0.000000 -0.000680 9.278137 -0.000000 0.000000 -0.000001 
0.000006 104.270477 1.554256 0.000010 0.000003 -0.000113 -0.000005 10.181587 0.131522 0.000001 -0.000003 0.000084 -0.000000 9.893967 -1.470711 0.000001 0.000000 -0.000000 -0.000000 9.220802 -1.370642 0.000000 -0.000000 -0.000000 0.000001 16.740433 -2.049030 0.000000 -0.000000 -0.000000 0.000000 9.617859 1.685014 0.000000 0.000000 0.000000 0.000002 22.037384 7.501101 0.000000 -0.000000 0.000000 -4.569968 11.014880 -2.160881 0.000008 0.000001 -0.000038 -10.592728 -0.524845 -2.231704 96.311330 73.678610 -79.831265 -27.841406 0.000018 0.000634 5.235102 117.993089 -8.700824 -28.328840 0.000023 0.000027 -0.000325 -0.000041 0.000008 -2.464709 -1.573575 2.682157 -54.794120 156.724141 -100.468572 -3.214670 -1.872727 1.924678 140.061854 -41.833256 178.729795 -2.654407 -1.528010 1.513048 157.309529 -44.784744 203.236350 -2.018846 -1.152016 1.108064 -0.000005 -0.000002 0.000004 -9.108049 -0.517878 2.260412 179.094568 11.797839 -171.641684 -3.699744 0.000005 0.001805 178.917762 16.552308 -172.418031 -2.849767 0.000102 0.000067 184.060484 14.901912 -210.327520 -2.772164 -0.000013 -0.000019 -0.000002 0.000001 0.000003 -9.532276 -0.000044 0.000555 178.193229 11.246402 -163.110887 -3.699757 -0.000015 0.004305 180.263842 16.729155 -181.257511 -2.949768 0.000117 -0.001459 185.530259 12.453053 -227.729667 -2.946629 0.000014 -0.000149 -0.000000 0.000001 0.000002 -9.103412 -0.043086 -1.864551 177.390996 10.632726 -152.047114 -3.378962 0.000006 -0.000463 180.636428 9.631337 -187.709171 -2.889483 0.000255 0.000964 186.275583 6.134528 -271.298556 -2.638804 -0.000016 0.000938 -0.000001 -0.000000 -0.000002 -8.076408 -0.486598 -3.805697 181.321018 8.877614 -195.597015 -3.599677 0.000008 -0.003183 180.937886 3.357765 -203.179768 -2.099671 0.000261 -0.005168 181.276267 1.575615 103.848655 -2.115788 -0.000056 -0.003686 -0.000000 0.000001 -0.000004 4.570446 11.014691 -2.160851 -0.000018 0.000010 -0.000021 10.592522 -0.524552 -2.232369 61.029427 -73.962623 47.866915 27.841829 -0.000033 -0.000124 -170.785711 -69.731990 -166.804845 28.328842 -0.000029 0.000024 0.000021 -0.000088 -0.000001 2.466069 -1.576215 2.681850 44.170939 105.778470 -88.735195 3.217574 -1.872056 1.916507 139.812483 -304.500024 188.052525 2.655877 -1.528839 1.514615 -186.999146 52.388596 137.095011 2.020891 -1.154054 1.115171 0.000000 0.000004 0.000002 9.109328 -0.518050 2.259854 -170.667166 -24.095910 -223.888328 3.699854 -0.000043 -0.000314 -156.691260 -31.481708 -178.796813 2.849856 0.000057 0.000232 -121.879398 -16.882247 -182.742422 2.774869 -0.000028 -0.000024 0.000000 -0.000001 -0.000002 9.533459 0.000117 -0.000067 -129.518391 -14.143188 -238.474525 3.699978 -0.000017 -0.000248 11.892311 -148.883398 -43.018215 2.949924 -0.000033 -0.000055 19.032151 -149.387493 -15.014786 2.952880 -0.000033 0.000066 -0.000000 0.000003 -0.000003 9.104597 -0.042954 -1.865183 -129.974006 -13.970059 -233.186429 3.149864 -0.000036 0.000054 11.058697 -150.034326 -27.039609 2.949749 -0.000056 0.000062 13.905948 -159.446613 -26.626990 2.644320 0.000014 0.000056 0.000000 -0.000003 -0.000001 8.077825 -0.486814 -3.806367 49.060819 -164.743767 -49.412590 3.599965 0.000087 0.014608 -127.510015 -12.965114 -236.159036 2.100128 0.000247 0.007758 507.820849 3.074662 55.549304 2.125504 -0.000014 0.007519 -0.000002 0.000002 -0.000000 -8.207786 -6.751667 -1.599560 -0.077001 -0.000003 0.000080 -0.000002 -44.370110 0.345938 0.153719 -0.000000 -0.000000 0.000000 -44.423679 -3.043532 -0.076700 0.000000 -0.000002 -0.000006 -8.728667 10.710559 -0.000009 -0.000000 -0.000000 -0.000001 -0.000679 9.278123 0.000000 -0.000000 -0.000000 8.207792 -6.751710 -1.599556 -0.074518 -0.000003 0.000081 -0.000002 -44.370014 0.346960 0.148822 0.000002 0.000000 -0.000001 -44.423664 -3.044403 -0.074314 0.000000 -0.000002 -0.000004 -8.728671 10.710558 0.000007 -0.000000 -0.000000 0.000000 -0.000680 9.278137 -0.000000 0.000000 -0.000001 
0.000006 104.270477 1.554256 0.000010 0.000003 -0.000113 -0.000005 10.181587 0.131522 0.000001 -0.000003 0.000084 -0.000000 9.893967 -1.470711 0.000001 0.000000 -0.000000 -0.000000 9.220802 -1.370642 0.000000 -0.000000 -0.000000 0.000001 16.740433 -2.049030 0.000000 -0.000000 -0.000000 0.000000 9.617859 1.685014 0.000000 0.000000 0.000000 0.000002 22.037384 7.501101 0.000000 -0.000000 0.000000 -4.569968 11.014880 -2.160881 0.000008 0.000001 -0.000038 -10.592743 -0.524847 -2.231714 91.218857 71.673615 -72.834583 -27.841375 0.000010 0.000639 5.702571 122.253570 -10.322181 -28.328835 0.000021 0.000020 -0.000323 -0.000044 0.000007 -2.464708 -1.573591 2.682164 -55.317975 157.298601 -99.848705 -3.214683 -1.872778 1.924659 151.001890 -47.118504 195.200113 -2.654444 -1.528099 1.513080 170.866744 -44.652526 223.489554 -2.018837 -1.151998 1.108066 -0.000002 -0.000000 0.000000 -9.108043 -0.517769 2.260434 185.011793 14.161340 -218.993295 -3.699731 0.000044 0.001814 181.826985 17.895248 -191.445271 -2.849757 0.000080 0.000074 183.665385 15.894755 -205.814077 -2.772171 0.000001 -0.000020 0.000001 0.000001 -0.000000 -9.532255 0.000040 0.000567 184.431377 13.154453 -217.693770 -3.699761 0.000032 0.004311 181.983096 17.364342 -192.471507 -2.949765 0.000078 -0.001466 183.469386 13.304521 -209.076803 -2.946622 0.000002 -0.000153 0.000001 -0.000000 -0.000001 -9.103338 -0.043002 -1.864533 182.582964 13.131848 -201.921907 -3.378979 0.000037 -0.000468 181.325813 11.333674 -193.433717 -2.889376 0.000185 0.000961 183.637204 7.723179 -230.646308 -2.638795 -0.000016 0.000946 -0.000001 -0.000000 0.000000 -8.076445 -0.486589 -3.805686 184.743093 12.816528 -219.884430 -3.599688 0.000040 -0.003176 182.210391 6.634836 -213.369782 -2.099606 0.000138 -0.005166 181.749585 4.433018 139.782540 -2.115765 -0.000060 -0.003671 -0.000001 0.000000 -0.000002 4.570446 11.014691 -2.160851 -0.000018 0.000010 -0.000021 10.592513 -0.524557 -2.232373 56.399235 -68.781419 40.307088 27.841850 -0.000024 -0.000131 -178.879840 -66.154958 -178.280122 28.328833 -0.000043 0.000015 0.000019 -0.000090 -0.000000 2.466053 -1.576182 2.681858 21.030152 104.885799 -65.273625 3.217581 -1.872051 1.916544 143.153580 -316.237431 176.360648 2.655846 -1.528817 1.514640 -196.864138 45.877418 148.031291 2.020899 -1.154052 1.115148 -0.000000 0.000003 -0.000001 9.109394 -0.517956 2.259920 -186.761783 -9.830394 -249.107627 3.699853 -0.000034 -0.000259 -180.726355 -10.536138 -187.703284 2.849863 -0.000028 0.000424 -180.432697 -8.329127 -185.952993 2.774881 -0.000007 -0.000033 0.000003 0.000000 -0.000001 9.533520 0.000133 0.000095 -188.238320 -8.992087 -265.066118 3.700048 -0.000007 -0.000175 -5.260335 -170.513419 -57.972706 2.949938 -0.000025 0.000015 -1.362221 -172.974281 -21.874217 2.952880 -0.000028 0.000076 -0.000001 -0.000002 0.000001 9.104641 -0.042923 -1.865026 -187.066642 -8.608142 -258.709807 3.149977 -0.000015 0.000110 -5.106534 -171.271160 -60.569660 2.949766 -0.000064 0.000116 -1.535317 -174.518478 -31.235548 2.644315 0.000034 0.000060 0.000003 0.000000 0.000001 8.077923 -0.486788 -3.806211 -9.425290 -169.300418 -77.429497 3.600072 0.000085 0.014782 -186.038603 -5.582637 -266.205421 2.100120 0.000220 0.007758 536.591792 -1.161827 55.094010 2.125490 -0.000001 0.007520 -0.000002 0.000001 0.000002 -8.207786 -6.751667 -1.599560 -0.077001 -0.000003 0.000080 -0.000002 -44.370110 0.345938 0.153719 -0.000000 -0.000000 0.000000 -44.423679 -3.043532 -0.076700 0.000000 -0.000002 -0.000006 -8.728667 10.710559 -0.000009 -0.000000 -0.000000 -0.000001 -0.000679 9.278123 0.000000 -0.000000 -0.000000 8.207792 -6.751710 -1.599556 -0.074518 -0.000003 0.000081 -0.000002 -44.370014 0.346960 0.148822 0.000002 0.000000 -0.000001 -44.423664 -3.044403 -0.074314 0.000000 -0.000002 -0.000004 -8.728671 10.710558 0.000007 -0.000000 -0.000000 0.000000 -0.000680 9.278137 -0.000000 0.000000 -0.000001 
